:SAMPLES-PER-SECOND 30
:FRAME-RANGE 1-3358
:FULLY-SPECIFIED
:DEGREES
2834
root  41.2 38.5888 29.5052 -4.78989 -0.469208 0.560242
RightUpLeg  -16.4351 1.24294 -3.46324
RightLeg  23.6762 5.0085 2.16987
RightFoot  -1.67825 -0.522045 6.03421
RightToes  -5.8209e-011 0 -3.6325e-017
Spine  14.1812 -3.74424 -3.83694
Spine1  -0.213285 -5.9381 9.05328
HEad  -1.70829 30.5695 -14.3403
LeftShoulder1  1.4806 -1.1034 -25.9766
LeftArm  12.2186 -6.24967 -48.3899
LeftForeArm  11.0061 -33.7685 -6.88626
LeftHand  0.831055 -6.56681 -7.70069
RightShoulder  1.29742 -1.0666 46.9776
RightArm  19.4784 -9.231 15.2092
RightForeArm  -11.1265 14.3506 12.2867
RightHand  2.33014 8.20731 19.2554
LeftUpLeg  -18.6989 12.4011 12.2511
LeftLeg  39.2719 1.85812 1.99957
LeftFoot  1.18968 1.08203 -9.90402
LeftToes  -4.03819e-010 -8.71445e-011 8.52097e-011
2835
root  42.1668 37.4602 29.9318 -6.88289 5.54565 -1.51224
RightUpLeg  -17.7048 0.32261 -3.5678
RightLeg  33.9916 0.310782 -0.0426439
RightFoot  -8.44069 -0.215521 6.23797
RightToes  -5.8209e-011 0 -3.6325e-017
Spine  16.6967 -4.42098 -1.23779
Spine1  -0.703226 -6.15328 8.89614
HEad  -0.663544 30.2889 -14.4836
LeftShoulder1  1.47863 -1.08744 -26.0479
LeftArm  9.2349 -8.41078 -48.8824
LeftForeArm  11.9823 -34.1066 -6.91905
LeftHand  0.738095 -5.99075 -7.18115
RightShoulder  1.44163 -0.770281 46.4701
RightArm  14.5936 -7.23422 13.8611
RightForeArm  -6.60758 11.5129 13.8235
RightHand  2.02084 7.7307 17.3136
LeftUpLeg  -19.7732 12.957 18.789
LeftLeg  42.8662 3.35084 3.70948
LeftFoot  0.117923 0.764373 -7.61921
LeftToes  -4.03819e-010 -8.71445e-011 8.52097e-011
2836
root  43.1806 36.4859 30.3144 -6.89292 9.7789 -2.46765
RightUpLeg  -20.2572 -3.29893 -5.50262
RightLeg  41.9863 1.05453 0.713458
RightFoot  -12.7611 0.0259059 9.07882
RightToes  -5.8209e-011 0 -3.6325e-017
Spine  16.7326 -3.93456 -0.832036
Spine1  0.489517 -5.63039 8.24845
HEad  -1.67124 30.2142 -16.0751
LeftShoulder1  1.4454 -0.895386 -26.7202
LeftArm  7.88244 -10.4499 -49.5579
LeftForeArm  10.1684 -32.2703 -6.54322
LeftHand  0.439126 -4.93607 -4.63316
RightShoulder  2.57557 1.43097 45.7748
RightArm  2.90338 -4.42879 11.5019
RightForeArm  1.6313 4.72888 15.8356
RightHand  1.67424 7.09532 15.0734
LeftUpLeg  -22.7331 15.6863 22.7906
LeftLeg  43.8545 4.52538 5.03508
LeftFoot  -1.59793 0.586447 -6.76414
LeftToes  -4.03819e-010 -8.71445e-011 8.52097e-011
2837
root  44.3277 35.8786 30.7193 -7.55701 14.4613 -2.78326
RightUpLeg  -19.2719 -6.70542 -8.40127
RightLeg  45.7733 1.09213 0.872815
RightFoot  -15.9582 0.358264 11.5461
RightToes  -5.8209e-011 0 -3.6325e-017
Spine  16.6105 -3.05992 -1.75711
Spine1  1.6274 -5.18348 9.37257
HEad  -1.21299 29.4562 -15.6967
LeftShoulder1  1.52398 -1.28376 -25.6618
LeftArm  10.3529 -10.0189 -50.5134
LeftForeArm  8.09133 -28.5582 -5.74406
LeftHand  0.187339 -3.93113 -2.06953
RightShoulder  3.43921 3.25287 44.5472
RightArm  -5.46768 -3.87282 9.27282
RightForeArm  9.26134 -0.447546 15.4884
RightHand  1.5208 6.8582 13.95
LeftUpLeg  -24.233 18.3774 24.3299
LeftLeg  42.36 5.91135 6.12748
LeftFoot  -1.63121 0.639297 -7.40554
LeftToes  -4.03819e-010 -8.71445e-011 8.52097e-011
2838
root  45.7106 35.5839 31.0589 -8.15529 19.4418 -4.02664
RightUpLeg  -16.3562 -7.55264 -10.3637
RightLeg  45.8848 -0.739175 -1.14593
RightFoot  -17.734 0.750865 15.5242
RightToes  -5.8209e-011 0 -3.6325e-017
Spine  16.2454 -2.78312 -0.677875
Spine1  1.94775 -4.79903 9.22469
HEad  0.672196 28.105 -14.1748
LeftShoulder1  1.51525 -1.2674 -25.5848
LeftArm  14.7993 -8.45521 -49.0958
LeftForeArm  7.8884 -25.1068 -4.96429
LeftHand  0.197055 -5.16954 -1.85769
RightShoulder  3.41006 3.32493 43.6609
RightArm  -4.46067 -3.99513 7.54981
RightForeArm  10.9419 -0.392132 15.5818
RightHand  1.33179 6.37895 12.7085
LeftUpLeg  -26.4741 20.3522 24.5457
LeftLeg  41.9637 7.34461 7.40006
LeftFoot  -3.70053 0.535371 -7.67812
LeftToes  -4.03819e-010 -8.71445e-011 8.52097e-011
2839
root  47.3769 35.4628 31.3058 -8.21007 24.6063 -5.18884
RightUpLeg  -12.874 -7.56629 -12.6314
RightLeg  44.1999 -2.82266 -3.24998
RightFoot  -17.6078 1.00927 20.4354
RightToes  -5.8209e-011 0 -3.6325e-017
Spine  15.0686 -2.75167 -0.0623144
Spine1  2.24359 -4.9001 9.71959
HEad  1.66571 26.2905 -13.2438
LeftShoulder1  1.50267 -1.19746 -25.7972
LeftArm  18.6032 -5.42194 -46.217
LeftForeArm  9.73059 -21.2685 -5.45561
LeftHand  0.120392 -5.29296 -0.996003
RightShoulder  2.71043 2.14816 41.8471
RightArm  1.01736 -4.0438 7.4225
RightForeArm  8.03124 2.05307 16.0821
RightHand  1.24524 6.70996 11.5258
LeftUpLeg  -29.454 21.1956 22.5022
LeftLeg  43.825 8.35356 8.88271
LeftFoot  -5.62604 0.336067 -6.05394
LeftToes  -4.03819e-010 -8.71445e-011 8.52097e-011
2840
root  49.3523 35.4386 31.478 -8.56589 29.5328 -6.62701
RightUpLeg  -8.21344 -8.74314 -15.4499
RightLeg  40.969 -3.47354 -3.51888
RightFoot  -15.5645 0.861001 25.8319
RightToes  -5.8209e-011 0 -3.6325e-017
Spine  13.5297 -2.73417 0.959503
Spine1  2.4652 -5.05603 10.9427
HEad  2.04566 23.9342 -12.7026
LeftShoulder1  1.45627 -1.07397 -25.6385
LeftArm  11.0005 -1.91652 -42.1797
LeftForeArm  15.5795 -15.2882 -10.2257
LeftHand  0.143459 -4.63058 -1.37138
RightShoulder  1.95208 0.719139 40.2747
RightArm  7.17534 -4.42561 7.01858
RightForeArm  3.62901 5.17964 16.0519
RightHand  1.22144 6.71865 11.2919
LeftUpLeg  -30.9952 21.4608 19.4269
LeftLeg  45.8585 7.28191 8.36659
LeftFoot  -5.02215 0.312443 -5.1129
LeftToes  -4.03819e-010 -8.71445e-011 8.52097e-011
2841
root  51.3893 35.6607 31.6437 -8.74698 33.1226 -6.87216
RightUpLeg  -2.89108 -8.97065 -19.2386
RightLeg  36.2469 -3.4463 -2.97303
RightFoot  -11.0106 -0.17082 32.0598
RightToes  -5.8209e-011 0 -3.6325e-017
Spine  12.0563 -1.91814 0.489657
Spine1  2.73383 -4.41383 11.0962
HEad  3.11908 20.8849 -11.1423
LeftShoulder1  1.36632 -0.830263 -25.3372
LeftArm  -0.898397 2.31509 -37.0156
LeftForeArm  19.0506 -8.91944 -13.7165
LeftHand  0.279047 -4.03058 -3.1713
RightShoulder  1.34392 -0.551102 39.7104
RightArm  13.2285 -5.33487 5.29932
RightForeArm  -1.08199 8.00356 15.6516
RightHand  1.2521 6.90785 11.3943
LeftUpLeg  -28.8239 21.732 16.1564
LeftLeg  44.1036 5.04724 5.61895
LeftFoot  -4.60861 0.409658 -6.49093
LeftToes  -4.03819e-010 -8.71445e-011 8.52097e-011
2842
root  53.5919 35.7233 31.7287 -9.48972 35.7975 -7.93106
RightUpLeg  1.25717 -8.30431 -22.105
RightLeg  33.0652 -3.54427 -2.73133
RightFoot  -4.82635 -2.15917 36.167
RightToes  -5.8209e-011 0 -3.6325e-017
Spine  11.1788 -1.09077 1.25965
Spine1  1.79146 -3.59044 12.043
HEad  3.73801 18.4729 -10.0877
LeftShoulder1  1.20978 -0.401361 -24.7624
LeftArm  -7.62311 7.60427 -30.7134
LeftForeArm  18.8392 -5.66153 -14.6238
LeftHand  0.358739 -3.43837 -4.47656
RightShoulder  0.847968 -1.6252 39.5847
RightArm  11.5137 -5.53505 3.76564
RightForeArm  0.865997 7.0701 15.8661
RightHand  1.31787 6.9977 11.9151
LeftUpLeg  -29.0595 24.0998 13.606
LeftLeg  47.3715 2.19461 2.97849
LeftFoot  -8.73811 0.115418 -2.77212
LeftToes  -4.03819e-010 -8.71445e-011 8.52097e-011
2843
root  55.6382 36.3437 31.7542 -9.79955 38.6924 -8.12259
RightUpLeg  3.74388 -5.19175 -23.1276
RightLeg  30.9304 -7.7832 -5.24668
RightFoot  6.47913 -4.51945 28.5602
RightToes  -5.8209e-011 0 -3.6325e-017
Spine  10.2245 -0.594954 1.18486
Spine1  1.48063 -3.08228 12.7442
HEad  3.34302 16.5156 -9.57343
LeftShoulder1  1.03488 0.0466899 -23.6621
LeftArm  -10.8223 11.946 -23.6335
LeftForeArm  17.7332 -4.06429 -14.8424
LeftHand  0.407038 -3.02052 -5.3991
RightShoulder  0.841278 -1.68014 40.5599
RightArm  6.23071 -5.64047 2.7504
RightForeArm  3.0106 4.98886 16.1081
RightHand  1.13468 6.31925 10.8488
LeftUpLeg  -26.1272 25.1693 10.7893
LeftLeg  45.5204 0.321339 0.762725
LeftFoot  -11.288 0.0678814 -0.255374
LeftToes  -4.03819e-010 -8.71445e-011 8.52097e-011
2844
root  57.5189 37.3208 31.7751 -9.00355 40.3939 -8.02609
RightUpLeg  3.51007 -2.50309 -21.8708
RightLeg  29.3831 -10.6174 -6.63727
RightFoot  14.8568 -2.81129 12.4843
RightToes  -5.8209e-011 0 -3.6325e-017
Spine  8.85789 -0.137728 1.62354
Spine1  1.1786 -2.34735 12.1058
HEad  4.51082 15.862 -9.59628
LeftShoulder1  0.837837 0.621865 -22.7461
LeftArm  -10.6153 16.1151 -16.381
LeftForeArm  14.5921 -5.08727 -14.611
LeftHand  0.38371 -2.42121 -5.5193
RightShoulder  1.0462 -1.35823 42.9435
RightArm  3.36526 -4.19391 2.24142
RightForeArm  2.78089 3.0901 16.5141
RightHand  0.952389 5.57069 9.7231
LeftUpLeg  -22.0123 23.5119 8.14762
LeftLeg  39.9408 0.896484 1.18491
LeftFoot  -11.5473 0.0710472 0.944238
LeftToes  -4.03819e-010 -8.71445e-011 8.52097e-011
